# xmcd
#
# Track frame offsets: 
#        150
#        16173
#        37036
#        56614
#        76370
#        94557
#        120339
#        144120
#        161987
#        175808
#        195877
#        212571
#
# Disc length: 3022 seconds
#
# Revision: 1
# Processed by: cddbd v1.5.2PL0 Copyright (c) Steve Scherf et al.
# Submitted via: ExactAudioCopyFreeDBPlugin 1.0
#
DISCID=8e0bcc0c
DTITLE=Aiste Smilgeviciute ir Skyle - Babilonas
DYEAR=2000
DGENRE=Folk
TTITLE0=Dzian dzian
TTITLE1=Tolimi lietus
TTITLE2=Gangas
TTITLE3=Kolibriai
TTITLE4=Babilonas
TTITLE5=Manes nebuvo
TTITLE6=Septynis ilgus metus
TTITLE7=Ziema
TTITLE8=Sintra
TTITLE9=Pienes pukas
TTITLE10=Dum dum
TTITLE11=Androginas
EXTD=
EXTT0=
EXTT1=
EXTT2=
EXTT3=
EXTT4=
EXTT5=
EXTT6=
EXTT7=
EXTT8=
EXTT9=
EXTT10=
EXTT11=
PLAYORDER=
